<svg xmlns="http://www.w3.org/2000/svg" viewBox="0 0 400 300" preserveAspectRatio="xMidYMid meet">
  <!-- Background -->
  <defs>
    <linearGradient id="bg" x1="0%" y1="0%" x2="100%" y2="100%">
      <stop offset="0%" style="stop-color:#FFE5EC;stop-opacity:1" />
      <stop offset="50%" style="stop-color:#F0E5FF;stop-opacity:1" />
      <stop offset="100%" style="stop-color:#E5F4FF;stop-opacity:1" />
    </linearGradient>
  </defs>
  <rect width="400" height="300" fill="url(#bg)"/>
  
  <!-- Top left hand (Yellow) -->
  <circle cx="60" cy="80" r="45" fill="#FFD93D"/>
  <path d="M 60 35 Q 80 30 90 50 Q 95 40 110 45 Q 105 55 90 60 Q 85 75 75 85 Q 55 90 40 75 Z" fill="#FFD93D"/>
  
  <!-- Top right hand (Orange) -->
  <circle cx="340" cy="80" r="45" fill="#FF9A56"/>
  <path d="M 340 35 Q 320 30 310 50 Q 305 40 290 45 Q 295 55 310 60 Q 315 75 325 85 Q 345 90 360 75 Z" fill="#FF9A56"/>
  
  <!-- Left hand (Purple) -->
  <circle cx="80" cy="150" r="40" fill="#B366FF"/>
  <path d="M 80 110 Q 100 105 110 125 Q 115 115 130 120 Q 125 130 110 135 Q 105 150 95 160 Q 75 165 60 150 Z" fill="#B366FF"/>
  
  <!-- Right hand (Blue) -->
  <circle cx="320" cy="150" r="40" fill="#4A90E2"/>
  <path d="M 320 110 Q 300 105 290 125 Q 285 115 270 120 Q 275 130 290 135 Q 295 150 305 160 Q 325 165 340 150 Z" fill="#4A90E2"/>
  
  <!-- Bottom left hand (Pink) -->
  <circle cx="120" cy="220" r="38" fill="#FF6B9D"/>
  <path d="M 120 182 Q 140 177 150 197 Q 155 187 170 192 Q 165 202 150 207 Q 145 222 135 232 Q 115 237 100 222 Z" fill="#FF6B9D"/>
  
  <!-- Bottom right hand (Teal) -->
  <circle cx="280" cy="220" r="38" fill="#17A2B8"/>
  <path d="M 280 182 Q 260 177 250 197 Q 245 187 230 192 Q 235 202 250 207 Q 255 222 265 232 Q 285 237 300 222 Z" fill="#17A2B8"/>
  
  <!-- Center elements (Cards/Payment) -->
  <rect x="160" y="110" width="80" height="100" rx="8" fill="white" stroke="#DDD" stroke-width="2"/>
  <rect x="175" y="125" width="50" height="30" rx="4" fill="#4A90E2" opacity="0.2"/>
  <circle cx="185" cy="165" r="8" fill="#FF6B9D"/>
  <circle cx="210" cy="170" r="6" fill="#FFD93D"/>
  
  <!-- Connecting lines -->
  <line x1="105" y1="95" x2="160" y2="120" stroke="#DDD" stroke-width="2" stroke-dasharray="5,5"/>
  <line x1="295" y1="95" x2="240" y2="120" stroke="#DDD" stroke-width="2" stroke-dasharray="5,5"/>
  <line x1="115" y1="155" x2="160" y2="145" stroke="#DDD" stroke-width="2" stroke-dasharray="5,5"/>
  <line x1="305" y1="155" x2="240" y2="145" stroke="#DDD" stroke-width="2" stroke-dasharray="5,5"/>
  <line x1="150" y1="195" x2="170" y2="165" stroke="#DDD" stroke-width="2" stroke-dasharray="5,5"/>
  <line x1="250" y1="195" x2="230" y2="165" stroke="#DDD" stroke-width="2" stroke-dasharray="5,5"/>
</svg>
